<?xml version="1.0" encoding="UTF-8"?>
<svg id="Camada_1" data-name="Camada 1" xmlns="http://www.w3.org/2000/svg" viewBox="0 0 1016.5 266">
  <path d="M1006.45,262.44h-196.46c-5.03,0-7.55-1.95-7.55-5.85v-24.88c0-2.63,1.07-5.07,3.21-7.32l121.73-124.72h-115.12c-5.03,0-7.55-1.95-7.55-5.86v-31.18c0-3.9,2.52-5.85,7.55-5.85h188.91c5.03,0,7.55,1.95,7.55,5.85v22.69c0,2.63-1.07,5.08-3.21,7.32l-123.61,126.91h124.56c5.03,0,7.55,1.95,7.55,5.86v31.18c0,3.9-2.52,5.85-7.55,5.85Z"/>
  <path d="M315.4,266.21h-46.05c-5.03,0-7.55-1.95-7.55-5.85V66.39c0-3.9,2.52-5.85,7.55-5.85h46.05c5.03,0,7.55,1.95,7.55,5.85v193.96c0,3.9-2.52,5.85-7.55,5.85Z"/>
  <path d="M562.57,59.92l-214.82,1.24c-3.94,.02-6.23,5.45-3.99,9.43l41.55,73.76,.06-18.58c0-2.37,.52-3.99,1.56-4.87l64.31-56.48c.25-.3,.55-.45,.87-.46,.42-.02,.74,.3,.99,.95,.24,.64,.35,1.52,.35,2.64l-.07,27.62c-.01,2.29-.55,3.89-1.61,4.77l-44.34,35.39,.05,.31,44.09,31.24c1.05,.72,1.59,2.27,1.57,4.64l-.07,27.62c-.01,1.18-.12,2.09-.37,2.73-.25,.64-.58,.98-.99,.99-.3,.01-.58-.11-.87-.37l-59.04-46.59,60.49,107.39c1.96,3.5,6.17,3.47,8.11-.04l63.52-115.89v-.02s-62.77,55.6-62.77,55.6c-.26,.29-.55,.45-.87,.46-.42,.02-.75-.29-.99-.94-.24-.65-.36-1.53-.36-2.65v-27.61c0-2.3,.52-3.9,1.59-4.79l44.22-35.61-.05-.31-44.19-31.01c-1.06-.71-1.6-2.25-1.6-4.62v-27.61c0-1.18,.11-2.1,.36-2.74,.24-.64,.57-.97,.99-.99,.29-.01,.58,.11,.87,.37l64.16,50.17c1.03,.78,1.55,2.36,1.55,4.73v21.44c0,.33-.03,.61-.05,.91l.03-.06h0s39.89-72.77,39.89-72.77c2.19-4.02-.17-9.41-4.12-9.4Z"/>
  <g>
    <path d="M168.36,162.29c2.72-5.48,3.76-11.31,5.27-17.55,7.99-33.08-17.93-65.76-50.91-79.95-8.18-3.52-17.44-5.18-25.56-8.77-3.61-1.6-7.73-5.75-7.99-8.96-.94-11.93-.41-23.96-.36-35.95,.01-3.26,.95-5.88,2.88-7.41,1.84-1.46,4.14-1.4,8.18-1.07,9.46,.77,14.25,1.78,14.25,1.78,7.7,1.61,11.56,2.42,16.11,3.72,0,0,11.83,3.37,23.03,8.46,65.09,29.57,82.43,82.57,82.43,82.57,7.03,20.45,8.65,40.64,2.9,60.37-1.11,3.81-2.39,7.54-3.83,11.18-4.66,11.79-10.25,20.8-14.55,26.87"/>
    <path d="M4.97,132.98c0-40.24-.03-80.47,.02-120.71,.01-10.89,.81-11.6,13.49-11.72,13.53-.12,27.07-.06,40.6-.03,12.82,.02,14.13,1.11,14.14,12.36,.03,74.48,.01,148.96,.01,223.44,0,6.56-.15,13.13,.03,19.69,.19,6.9-3.7,9.86-11.45,9.82-15.18-.08-30.37-.1-45.55,0-8.33,.06-11.47-3.07-11.42-10.44,.3-40.81,.14-81.61,.14-122.42Z"/>
    <path d="M174.14,121.92c5.27,33.35-19.02,67.48-51.76,81.67-8.12,3.52-17.31,5.18-25.37,8.77-3.58,1.6-7.67,5.75-7.92,8.96-.93,11.93-.4,23.96-.35,35.95,.01,3.29,.96,5.91,2.9,7.44,1.12,.88,2.61,1.27,8.07,1.04,2.67-.11,6.33-.37,10.69-1.04,9.83-1.65,25.09-5.07,42.29-12.92,14.53-6.63,64.97-29.64,81.8-82.57,3.38-10.64,8.39-31.89,2.88-60.37"/>
  </g>
  <g>
    <path d="M587.8,132.46c0-39.85-.02-79.69,0-119.54,0-11.33,.77-11.99,13.47-12.02,13.94-.03,27.88,.22,41.81-.08,7.93-.17,10.73,3.17,10.72,9.71-.04,81.1-.05,162.21,.02,243.31,0,6.72-3.2,9.84-10.87,9.74-14.57-.18-29.15-.31-43.71,.03-8.85,.21-11.58-3.36-11.54-10.77,.2-40.13,.09-80.25,.09-120.38Z"/>
    <path d="M725.1,209.8c15.18,0,30.37,.17,45.55-.07,7.97-.12,11.64,2.64,11.45,9.97-.3,11.56-.23,23.14-.02,34.71,.12,6.47-3.08,9.19-10.25,9.17-31-.1-62-.1-93,0-7.01,.02-10.52-2.26-10.35-8.97,.31-11.85,.32-23.71,0-35.55-.19-7.17,3.74-9.39,11.07-9.31,15.18,.16,30.37,.05,45.55,.05Z"/>
    <path d="M725.85,.91c15.5,0,31.01,.13,46.5-.07,6.18-.08,9.67,1.72,9.63,7.63-.08,12.13-.11,24.27-.04,36.4,.04,6.82-3.52,9.16-11.16,9.09-30.37-.29-60.74-.2-91.11-.06-7.27,.03-11.27-2.11-11.15-9.15,.19-11.85,.17-23.71-.03-35.56-.11-6.27,3.21-8.43,9.9-8.35,15.82,.2,31.64,.06,47.45,.06Z"/>
    <path d="M708.55,158.92c-10.11,0-20.23-.06-30.34,.02-6.68,.05-9.81-2.64-9.72-8.73,.18-12.12,.22-24.25,0-36.37-.1-5.72,2.6-8.3,8.96-8.28,20.23,.06,40.45,.06,60.68,.02,7.75-.02,11.34,2.74,10.92,10.21-.6,10.69-.11,21.42-.17,32.13-.05,9.75-1.47,10.95-12.84,11-9.16,.04-18.33,0-27.5,0Z"/>
  </g>
</svg>